# xmcd
#
# Track frame offsets: 
#        150
#        10008
#        21344
#        36007
#        49097
#        59691
#        72574
#        84931
#        94940
#        108371
#        119003
#        131098
#        140597
#        155446
#
# Disc length: 2230 seconds
#
# Revision: 0
# Processed by: cddbd v1.5.1PL0 Copyright (c) Steve Scherf et al.
# Submitted via: ExactAudioCopy v0.95a3
#
DISCID=c508b40e
DTITLE=Various Artist - Country No.1 Hits
DYEAR=2003
DGENRE=Country
TTITLE0=Johnny Cash - Ballad Of A Teenage Queen
TTITLE1=Kitty Wells - It Wasn't God Who Made Honky Tonk Angels
TTITLE2=Loretta Lynn - Coal Miner's Daughter
TTITLE3=Kenny Rogers - Ruby (Don't Take Your Love To Town)
TTITLE4=Roger Miller - King Of The Road
TTITLE5=Lynn Anderson - Rose Garden
TTITLE6=Porter Wagoner - A Satisfied Mind
TTITLE7=Faron Young - Hello Walls
TTITLE8=David Houston - Almost Persuaded
TTITLE9=Hank Locklin - Please Help Me I'm Falling
TTITLE10=Johnny Paycheck - Take This Job And Shove It
TTITLE11=Charley Pride - Kiss An Angel Good Morning
TTITLE12=Don Gibson - Woman (Sensuous Woman)
TTITLE13=Jack Greene - There Goes My Everything
EXTD=
EXTT0=
EXTT1=
EXTT2=
EXTT3=
EXTT4=
EXTT5=
EXTT6=
EXTT7=
EXTT8=
EXTT9=
EXTT10=
EXTT11=
EXTT12=
EXTT13=
PLAYORDER=
